<?xml version="1.0" encoding="utf-8"?>
<!-- Generator: Adobe Illustrator 25.2.0, SVG Export Plug-In . SVG Version: 6.00 Build 0)  -->
<svg version="1.1" id="Layer_1" xmlns="http://www.w3.org/2000/svg" xmlns:xlink="http://www.w3.org/1999/xlink" x="0px" y="0px"
	 viewBox="0 0 30 30" style="enable-background:new 0 0 30 30;" xml:space="preserve">
<style type="text/css">
	.st0{fill:#FDE9D0;}
	.st1{fill:#454B53;}
	.st2{fill:#F4767A;}
	.st3{fill:#FFFFFF;}
</style>
<g>
	<g>
		<g>
			<g>
				<path class="st0" d="M21.3,11.2c0.2-0.5,0.3-0.4,0.6-0.8c1.4-1.4,3.7-1.5,5.2-0.3c1.2,1,1.8,2.3,1.8,3.8c0,0.6-0.2,1.2-0.5,1.7
					c-0.6,1.1-1.4,2-2.2,2.9c-1.5,1.6-3.2,2.9-5,4.2c-0.1,0.1-0.1,0.1-0.3,0c-1.9-1.4-3.6-2.8-3.6-2.8"/>
				<path class="st1" d="M21,23.8c-0.3,0-0.5-0.1-0.6-0.2c-1.9-1.4-3.7-2.8-3.7-2.8c-0.4-0.3-0.4-0.8-0.1-1.2
					c0.3-0.4,0.8-0.4,1.2-0.1c0,0,1.5,1.2,3.2,2.5c1.8-1.3,3.3-2.6,4.6-3.9c0.7-0.7,1.5-1.6,2.1-2.7c0.3-0.6,0.4-1,0.4-1.3
					c0-1.3-0.5-2.4-1.5-3.2c-1.2-1-3-0.9-4.1,0.2c-0.1,0.1-0.2,0.2-0.3,0.3c-0.1,0.1-0.1,0.1-0.2,0.3c-0.2,0.4-0.7,0.6-1.1,0.4
					c-0.4-0.2-0.6-0.7-0.4-1.1c0.2-0.4,0.3-0.6,0.6-0.8c0,0,0.1-0.1,0.2-0.2C23,8.2,25.8,8,27.6,9.6c1.4,1.1,2.1,2.6,2.1,4.4
					c0,0.9-0.3,1.6-0.6,2.2c-0.7,1.3-1.6,2.3-2.4,3.1c-1.4,1.4-3.1,2.8-5.1,4.3C21.4,23.7,21.2,23.8,21,23.8z"/>
			</g>
			<g>
				<path class="st2" d="M11.2,10.4c0.3-0.6,0.6-1.1,1.1-1.6c1.8-1.8,4.8-2,6.7-0.3c1.5,1.3,2.3,2.9,2.4,4.9c0,0.8-0.3,1.5-0.7,2.2
					c-0.7,1.4-1.8,2.6-2.9,3.7c-2,2-4.2,3.8-6.4,5.4c-0.1,0.1-0.2,0.2-0.3,0c-2.5-1.8-4.9-3.7-7-5.9c-0.9-1-1.7-2-2.4-3.1
					c-1.1-2-0.8-3.9,0.3-5.7c0.8-1.4,2-2.3,3.7-2.6c2.2-0.4,4.3,0.7,5.3,2.7C11.1,10.2,11.2,10.3,11.2,10.4z"/>
				<path class="st1" d="M11.2,25.7c-0.2,0-0.4-0.1-0.6-0.2c-2.9-2.1-5.2-4-7.1-6.1c-1-1.1-1.9-2.2-2.5-3.3
					c-1.2-2.1-1.1-4.3,0.3-6.6C2.4,8,3.8,7,5.6,6.6c0.4-0.1,0.7-0.1,1.1-0.1c1.8,0,3.5,0.9,4.6,2.3c0.2-0.2,0.3-0.4,0.5-0.6
					c1.1-1.1,2.6-1.7,4.1-1.7c1.4,0,2.7,0.5,3.7,1.3c1.7,1.4,2.6,3.3,2.7,5.5c0,1.1-0.4,2-0.8,2.7c-0.8,1.6-2,2.9-3,3.9
					c-1.8,1.9-3.9,3.6-6.6,5.5C11.8,25.5,11.6,25.7,11.2,25.7z M6.6,8.2c-0.3,0-0.5,0-0.8,0.1c-1.3,0.2-2.4,1-3.1,2.2
					c-1.1,1.8-1.2,3.3-0.3,4.9c0.6,1,1.3,1.9,2.2,3c1.8,1.9,3.8,3.6,6.5,5.6c2.4-1.8,4.4-3.4,6.1-5.1c0.9-1,2-2.1,2.7-3.5
					c0.3-0.5,0.6-1.2,0.6-1.8c0-1.8-0.7-3.2-2.1-4.3c-0.7-0.6-1.7-0.9-2.6-0.9c-1.1,0-2.2,0.4-3,1.2c-0.4,0.4-0.7,0.8-0.9,1.4
					c-0.1,0.3-0.4,0.5-0.7,0.5c-0.3,0-0.6-0.2-0.7-0.4l-0.2-0.3C9.6,9.1,8.2,8.2,6.6,8.2z"/>
			</g>
		</g>
	</g>
	<path class="st3" d="M17.2,16c-0.1,0-0.3,0-0.4-0.1c-0.4-0.2-0.5-0.7-0.3-1.1c0.3-0.5,0.6-1.5,0.4-2.2c-0.1-0.2-0.2-0.4-0.5-0.5
		c-0.4-0.2-0.7-0.6-0.5-1.1s0.6-0.7,1.1-0.5c0.7,0.3,1.3,0.8,1.5,1.5c0.5,1.3-0.1,2.9-0.5,3.6C17.7,15.8,17.5,16,17.2,16z"/>
	<path class="st3" d="M15.3,18.3c-0.3,0-0.6-0.2-0.7-0.5c-0.2-0.4,0-0.9,0.3-1.1c0,0,0,0,0,0h0c0,0,0,0,0,0l0,0l0,0
		c0.1-0.1,0.3-0.1,0.4-0.1c0.4,0,0.7,0.3,0.8,0.6c0.1,0.4-0.1,0.8-0.4,0.9l0,0c0,0,0,0,0,0c0,0,0,0,0,0
		C15.5,18.3,15.4,18.3,15.3,18.3z"/>
</g>
</svg>
